<svg width="32" height="32" viewBox="0 0 32 32" fill="none" xmlns="http://www.w3.org/2000/svg">
  <!-- Background circle -->
  <circle cx="16" cy="16" r="16" fill="#1e3a8a"/>
  
  <!-- Head silhouette -->
  <path d="M8 16c0-6 4-10 8-10s8 4 8 10v8c0 2-1 4-3 4H11c-2 0-3-2-3-4v-8z" fill="#f8fafc"/>
  
  <!-- Brain shape -->
  <path d="M10 12c0-3 2.5-5.5 5.5-5.5S21 9 21 12c0 1.5-.5 2.8-1.3 3.8-.4.5-.9.9-1.4 1.2-1 .6-2.2.8-3.3.8-1.1 0-2.3-.2-3.3-.8-.5-.3-1-.7-1.4-1.2C10.5 14.8 10 13.5 10 12z" fill="#f59e0b"/>
  
  <!-- Brain details -->
  <path d="M12 10.5c.5-.3 1-.5 1.5-.5s1 .2 1.5.5M17 10.5c.5-.3 1-.5 1.5-.5s1 .2 1.5.5M11.5 13c.3-.2.7-.3 1-.3s.7.1 1 .3M17.5 13c.3-.2.7-.3 1-.3s.7.1 1 .3" stroke="#1e3a8a" stroke-width="0.8" fill="none"/>
  
  <!-- Letter D -->
  <text x="16" y="20" text-anchor="middle" fill="#1e3a8a" font-family="Arial, sans-serif" font-size="10" font-weight="bold">D</text>
</svg>